<svg width="19" height="19" viewBox="0 0 19 19" fill="none" xmlns="http://www.w3.org/2000/svg">
<path d="M14.0521 12.6667H5.67625C4.02166 12.6667 2.54916 11.4554 2.39083 9.80875C2.20875 7.92458 3.68916 6.33333 5.54166 6.33333H15.3267C16.3637 6.33333 17.3058 7.0775 17.4087 8.10667C17.5275 9.29417 16.6012 10.2917 15.4375 10.2917H7.125C6.68958 10.2917 6.33333 9.93542 6.33333 9.5C6.33333 9.06458 6.68958 8.70833 7.125 8.70833H14.0521C14.3767 8.70833 14.6458 8.43917 14.6458 8.11458C14.6458 7.79 14.3767 7.52083 14.0521 7.52083H7.23583C6.19875 7.52083 5.25666 8.265 5.15375 9.29417C5.035 10.4817 5.96125 11.4792 7.125 11.4792H15.3029C16.9575 11.4792 18.43 10.2679 18.5883 8.62125C18.7704 6.72917 17.29 5.14583 15.4375 5.14583H5.72375C3.45166 5.14583 1.41708 6.80833 1.20333 9.0725C0.965831 11.6771 2.9925 13.8542 5.54166 13.8542H14.0521C14.3767 13.8542 14.6458 13.585 14.6458 13.2604C14.6458 12.9358 14.3767 12.6667 14.0521 12.6667Z" fill="#422745" fill-opacity="0.5"/>
</svg>
