<svg width="15" height="15" viewBox="0 0 15 15" fill="none" xmlns="http://www.w3.org/2000/svg">
<path d="M11.875 2.5H11.25V1.875C11.25 1.53125 10.9688 1.25 10.625 1.25C10.2812 1.25 10 1.53125 10 1.875V2.5H5V1.875C5 1.53125 4.71875 1.25 4.375 1.25C4.03125 1.25 3.75 1.53125 3.75 1.875V2.5H3.125C2.43125 2.5 1.88125 3.0625 1.88125 3.75L1.875 12.5C1.875 13.1875 2.43125 13.75 3.125 13.75H11.875C12.5625 13.75 13.125 13.1875 13.125 12.5V3.75C13.125 3.0625 12.5625 2.5 11.875 2.5ZM11.875 11.875C11.875 12.2188 11.5938 12.5 11.25 12.5H3.75C3.40625 12.5 3.125 12.2188 3.125 11.875V5.625H11.875V11.875ZM4.375 6.875H5.625V8.125H4.375V6.875ZM6.875 6.875H8.125V8.125H6.875V6.875ZM9.375 6.875H10.625V8.125H9.375V6.875Z" fill="black" fill-opacity="0.54"/>
</svg>
