<svg width="19" height="19" viewBox="0 0 19 19" fill="none" xmlns="http://www.w3.org/2000/svg">
<path d="M9.50001 1.58333C5.12209 1.58333 1.58334 5.12208 1.58334 9.5C1.58334 13.8779 5.12209 17.4167 9.50001 17.4167C13.8779 17.4167 17.4167 13.8779 17.4167 9.5C17.4167 5.12208 13.8779 1.58333 9.50001 1.58333ZM12.9042 12.9042C12.5954 13.2129 12.0967 13.2129 11.7879 12.9042L9.50001 10.6163L7.21209 12.9042C6.90334 13.2129 6.40459 13.2129 6.09584 12.9042C5.78709 12.5954 5.78709 12.0967 6.09584 11.7879L8.38376 9.5L6.09584 7.21208C5.78709 6.90333 5.78709 6.40458 6.09584 6.09583C6.40459 5.78708 6.90334 5.78708 7.21209 6.09583L9.50001 8.38375L11.7879 6.09583C12.0967 5.78708 12.5954 5.78708 12.9042 6.09583C13.2129 6.40458 13.2129 6.90333 12.9042 7.21208L10.6163 9.5L12.9042 11.7879C13.205 12.0888 13.205 12.5954 12.9042 12.9042Z" fill="#E80404" fill-opacity="0.75"/>
</svg>
