<svg width="19" height="20" viewBox="0 0 19 20" fill="none" xmlns="http://www.w3.org/2000/svg">
<path d="M13.8605 5.32792L7.6 11.5884L4.1895 8.18742L2.85 9.52692L7.6 14.2769L15.2 6.67692L13.8605 5.32792ZM9.5 0.0269165C4.256 0.0269165 0 4.28292 0 9.52692C0 14.7709 4.256 19.0269 9.5 19.0269C14.744 19.0269 19 14.7709 19 9.52692C19 4.28292 14.744 0.0269165 9.5 0.0269165ZM9.5 17.1269C5.301 17.1269 1.9 13.7259 1.9 9.52692C1.9 5.32792 5.301 1.92692 9.5 1.92692C13.699 1.92692 17.1 5.32792 17.1 9.52692C17.1 13.7259 13.699 17.1269 9.5 17.1269Z" fill="black" fill-opacity="0.54"/>
</svg>
