<svg width="19" height="20" viewBox="0 0 19 20" fill="none" xmlns="http://www.w3.org/2000/svg">
<path d="M9.5 0.0269165C4.256 0.0269165 0 4.28292 0 9.52692C0 14.7709 4.256 19.0269 9.5 19.0269C14.744 19.0269 19 14.7709 19 9.52692C19 4.28292 14.744 0.0269165 9.5 0.0269165ZM6.9255 13.6024L3.515 10.1919C3.1445 9.82142 3.1445 9.22292 3.515 8.85242C3.8855 8.48192 4.484 8.48192 4.8545 8.85242L7.6 11.5884L14.136 5.05242C14.5065 4.68192 15.105 4.68192 15.4755 5.05242C15.846 5.42292 15.846 6.02142 15.4755 6.39192L8.265 13.6024C7.904 13.9729 7.296 13.9729 6.9255 13.6024Z" fill="#008000" fill-opacity="0.75"/>
</svg>
