<svg width="18" height="18" viewBox="0 0 18 18" fill="none" xmlns="http://www.w3.org/2000/svg">
<path d="M17.6007 0.412969C17.0683 -0.119453 16.2082 -0.119453 15.6758 0.412969L9.00002 7.07511L2.32423 0.399316C1.79181 -0.133105 0.931738 -0.133105 0.399316 0.399316C-0.133105 0.931738 -0.133105 1.79181 0.399316 2.32423L7.07511 9.00002L0.399316 15.6758C-0.133105 16.2082 -0.133105 17.0683 0.399316 17.6007C0.931738 18.1331 1.79181 18.1331 2.32423 17.6007L9.00002 10.9249L15.6758 17.6007C16.2082 18.1331 17.0683 18.1331 17.6007 17.6007C18.1331 17.0683 18.1331 16.2082 17.6007 15.6758L10.9249 9.00002L17.6007 2.32423C18.1195 1.80546 18.1195 0.931739 17.6007 0.412969Z" fill="black" fill-opacity="0.54"/>
</svg>
