<svg width="9" height="12" viewBox="0 0 9 12" fill="none" xmlns="http://www.w3.org/2000/svg">
<path d="M0.642857 10.6667C0.642857 11.4 1.22143 12 1.92857 12H7.07143C7.77857 12 8.35714 11.4 8.35714 10.6667V4C8.35714 3.26667 7.77857 2.66667 7.07143 2.66667H1.92857C1.22143 2.66667 0.642857 3.26667 0.642857 4V10.6667ZM8.35714 0.666667H6.75L6.29357 0.193333C6.17786 0.0733333 6.01071 0 5.84357 0H3.15643C2.98929 0 2.82214 0.0733333 2.70643 0.193333L2.25 0.666667H0.642857C0.289286 0.666667 0 0.966667 0 1.33333C0 1.7 0.289286 2 0.642857 2H8.35714C8.71071 2 9 1.7 9 1.33333C9 0.966667 8.71071 0.666667 8.35714 0.666667Z" fill="#EA3333"/>
</svg>
