<svg width="5" height="20" viewBox="0 0 5 20" fill="none" xmlns="http://www.w3.org/2000/svg">
<path d="M2.5 4.77692C3.875 4.77692 5 3.70817 5 2.40192C5 1.09567 3.875 0.0269165 2.5 0.0269165C1.125 0.0269165 0 1.09567 0 2.40192C0 3.70817 1.125 4.77692 2.5 4.77692ZM2.5 7.15192C1.125 7.15192 0 8.22067 0 9.52692C0 10.8332 1.125 11.9019 2.5 11.9019C3.875 11.9019 5 10.8332 5 9.52692C5 8.22067 3.875 7.15192 2.5 7.15192ZM2.5 14.2769C1.125 14.2769 0 15.3457 0 16.6519C0 17.9582 1.125 19.0269 2.5 19.0269C3.875 19.0269 5 17.9582 5 16.6519C5 15.3457 3.875 14.2769 2.5 14.2769Z" fill="black" fill-opacity="0.54"/>
</svg>
