<svg width="15" height="16" viewBox="0 0 15 16" fill="none" xmlns="http://www.w3.org/2000/svg">
<g clip-path="url(#clip0_2_189)">
<path d="M10.3125 4.62493V11.4264C10.3125 12.7699 9.35625 13.9656 8.05625 14.0942C6.5625 14.2421 5.3125 13.0399 5.3125 11.5356V3.58993C5.3125 2.74779 5.9 1.98279 6.7125 1.89922C7.65 1.80279 8.4375 2.55493 8.4375 3.49993V10.2499C8.4375 10.6035 8.15625 10.8928 7.8125 10.8928C7.46875 10.8928 7.1875 10.6035 7.1875 10.2499V4.62493C7.1875 4.36136 6.975 4.14279 6.71875 4.14279C6.4625 4.14279 6.25 4.36136 6.25 4.62493V10.1599C6.25 11.0021 6.8375 11.7671 7.65 11.8506C8.5875 11.9471 9.375 11.1949 9.375 10.2499V3.60922C9.375 2.26565 8.41875 1.06993 7.11875 0.941362C5.63125 0.793505 4.375 1.99565 4.375 3.49993V11.3878C4.375 13.2328 5.6875 14.8849 7.475 15.0585C9.53125 15.2514 11.25 13.6056 11.25 11.5356V4.62493C11.25 4.36136 11.0375 4.14279 10.7812 4.14279C10.525 4.14279 10.3125 4.36136 10.3125 4.62493Z" fill="black" fill-opacity="0.54"/>
</g>
<defs>
<clipPath id="clip0_2_189">
<rect width="15" height="15.4286" fill="white" transform="translate(0 0.285713)"/>
</clipPath>
</defs>
</svg>
